<?xml version="1.0" standalone="no"?>
<!DOCTYPE svg PUBLIC "-//W3C//DTD SVG 20010904//EN"
 "http://www.w3.org/TR/2001/REC-SVG-20010904/DTD/svg10.dtd">
<svg version="1.0" xmlns="http://www.w3.org/2000/svg"
 width="800.000000pt" height="800.000000pt" viewBox="0 0 800.000000 800.000000"
 preserveAspectRatio="xMidYMid meet">

<rect width="800" height="800" rx="64" fill="#fff" />
<g transform="translate(-120.000000,1180.000000) scale(0.100000,-0.100000)"
fill="#000000" stroke="none">
<path d="M2165 10785 c-25 -24 -25 -25 -25 -223 l0 -199 31 -43 c17 -23 58
-74 90 -113 67 -80 120 -180 146 -277 17 -61 18 -194 18 -2215 l0 -2150 -23
-65 c-31 -86 -71 -145 -176 -258 l-86 -92 0 -201 c0 -197 0 -200 24 -224 13
-13 39 -26 57 -30 19 -3 431 -4 917 -3 l884 3 29 33 29 32 0 193 c0 149 -3
197 -14 213 -8 11 -53 44 -101 73 -106 65 -185 144 -225 224 -59 120 -60 134
-60 905 l0 702 318 0 c345 0 411 -8 509 -56 97 -47 195 -153 286 -309 19 -33
192 -348 385 -700 686 -1256 658 -1207 707 -1252 34 -31 59 -44 99 -53 38 -8
284 -10 828 -8 696 3 779 6 833 21 148 43 259 129 313 244 26 56 27 67 32 266
l5 209 32 26 c18 15 46 38 63 51 79 60 92 179 28 248 l-21 22 24 20 c13 11 27
20 31 21 4 0 19 20 33 43 34 59 34 132 0 205 -22 47 -25 68 -25 162 l0 109 48
6 c192 28 291 70 359 153 60 74 77 138 70 271 -12 242 -138 541 -360 857 -42
59 -43 63 -55 181 -62 599 -372 1164 -820 1496 l-83 62 -93 190 c-105 216
-214 385 -339 525 -299 336 -721 574 -1197 675 -260 54 -278 55 -1955 55
l-1546 0 -24 -25z m3091 -888 c307 -56 553 -205 703 -426 81 -119 149 -288
171 -424 18 -110 8 -339 -19 -441 -81 -308 -331 -562 -656 -670 -190 -62 -198
-63 -1343 -69 l-432 -2 0 1028 0 1028 743 -4 c637 -3 755 -6 833 -20z m1730
-796 c96 -43 174 -162 174 -265 0 -107 -76 -229 -169 -271 l-41 -18 0 -181 0
-181 -325 -324 c-179 -178 -325 -324 -325 -325 0 -1 117 1 260 4 l260 5 265
265 266 265 -12 43 c-37 132 38 288 165 343 219 95 450 -119 382 -353 -45
-155 -232 -245 -377 -181 l-44 20 -289 -283 c-222 -218 -296 -285 -320 -289
-17 -3 -284 -5 -593 -3 l-562 3 -23 22 c-33 33 -30 89 6 119 26 23 33 24 204
24 l177 1 363 359 362 360 0 142 0 143 -56 29 c-170 89 -206 322 -71 464 82
86 212 112 323 63z m1039 -1649 c51 -26 106 -84 136 -142 32 -64 32 -165 0
-238 -99 -221 -411 -227 -522 -10 l-19 37 -192 -6 -193 -5 -71 -68 c-49 -48
-80 -70 -105 -75 -19 -3 -294 -5 -612 -3 l-579 3 -19 24 c-19 23 -25 65 -13
96 17 44 32 45 621 45 l559 0 59 61 c90 91 82 89 328 89 l215 0 6 23 c17 69
101 153 183 183 53 20 167 13 218 -14z m-473 -766 c92 -45 160 -152 161 -254
2 -215 -205 -357 -401 -275 -48 20 -125 95 -147 143 l-18 40 -174 0 c-114 0
-182 4 -196 12 -12 6 -62 47 -110 90 l-88 79 -230 -6 c-293 -8 -319 -1 -319
89 0 25 7 40 26 55 26 20 39 21 309 21 l283 0 104 -90 103 -90 71 0 c39 0 105
3 146 6 73 7 76 8 91 40 26 53 84 111 140 139 46 23 62 26 132 23 51 -2 94
-10 117 -22z m-977 -565 c17 -10 117 -91 223 -179 l192 -161 36 24 c115 78
296 44 377 -72 44 -61 55 -97 56 -176 3 -254 -304 -383 -484 -203 -63 62 -85
121 -85 222 l0 73 -190 158 -190 158 -92 6 c-83 5 -93 8 -115 33 -38 44 -28
97 22 124 11 6 65 12 120 12 80 0 106 -4 130 -19z"/>
<path d="M6802 8940 c-68 -42 -78 -130 -21 -194 65 -75 183 -44 210 56 8 32 6
46 -10 82 -32 73 -111 97 -179 56z"/>
<path d="M7560 8307 c-34 -17 -70 -74 -70 -112 0 -38 35 -94 70 -113 33 -17
105 -9 132 14 107 96 -5 275 -132 211z"/>
<path d="M7843 7304 c-21 -10 -40 -32 -54 -61 -19 -39 -20 -50 -10 -83 12 -41
57 -86 96 -96 13 -3 40 -1 59 6 109 35 118 182 16 235 -37 19 -67 19 -107 -1z"/>
<path d="M7363 6531 c-74 -46 -83 -140 -19 -198 86 -79 219 -9 203 107 -12 89
-110 137 -184 91z"/>
<path d="M7149 5680 c-65 -18 -99 -60 -99 -122 0 -65 64 -128 130 -128 56 0
120 65 120 123 0 82 -77 147 -151 127z"/>
</g>
</svg>
